PathFileType	4	(X/Y/Z)	Star.trc	
DataRate	CameraRate	NumFrames	NumMarkers	Units	OrigDataRate	OrigDataStartFrame	OrigNumFrames	
100.00	100.00	48	6	mm	100.00	1037	1362	
Frame#	Time	LThighSuperior			LThighInferior			LThighLateral			LAsis			RAsis			SACR			
		X1	Y1	Z1	X2	Y2	Z2	X3	Y3	Z3	X4	Y4	Z4	X5	Y5	Z5	X6	Y6	Z6	

852	8.510	30.23309	30.02381	772.61157	42.13533	23.98224	624.64832	49.91502	122.52285	699.84326	104.79507	134.99870	959.67877	350.03381	180.98680	939.23926	265.34976	-10.42417	996.61310 
853	8.520	30.50506	29.11130	774.06079	42.02531	20.84322	626.17859	51.09316	120.08470	699.94904	105.34399	136.15616	960.22614	350.06247	183.12337	939.15125	266.30951	-8.93119	997.53461 
854	8.530	30.73075	28.15097	775.47461	41.80719	17.67984	627.75330	51.99209	117.62646	699.97235	105.67902	136.96750	960.69281	350.54227	184.22163	938.91138	267.19406	-7.39374	998.40564 
855	8.540	30.91341	27.13640	776.92755	41.46551	14.35596	629.41901	52.39454	115.39744	700.06927	106.13874	138.47511	961.16595	350.98172	185.11632	938.61322	267.73935	-5.69742	999.08447 
856	8.550	31.04384	26.05256	778.41632	40.95794	10.89750	631.15088	52.64991	113.14965	700.21930	106.42336	139.72260	961.58441	351.30270	186.39874	938.37317	268.16391	-4.03017	999.73859 
857	8.560	31.09285	24.94555	779.95013	40.27905	7.42910	632.89203	52.79188	110.67302	700.37439	106.54677	140.89799	961.96399	351.67166	187.92740	938.18475	268.63562	-2.51545	1000.55627 
858	8.570	31.07244	23.77242	781.61475	39.47173	3.94300	634.75085	52.51313	108.18148	700.58850	106.75875	142.34027	962.36914	351.95251	189.35893	938.02612	269.04440	-0.90988	1001.31506 
859	8.580	30.96549	22.58227	783.40820	38.56727	0.27768	636.80273	51.81234	105.69250	700.86664	107.03088	143.90059	962.68164	352.17267	190.60229	937.90900	269.36465	0.74280	1002.03070 
860	8.590	30.72950	21.31620	785.28961	37.54116	-3.53989	639.02124	50.75634	103.11781	701.18024	107.22614	145.41669	962.97131	352.40765	191.76958	937.80090	269.86331	2.40772	1002.75366 
861	8.600	30.40055	19.93501	787.26874	36.42043	-7.35021	641.39099	49.31608	100.57704	701.64374	107.47855	147.01743	963.40253	352.60153	192.89880	937.68329	270.58640	4.25496	1003.33167 
862	8.610	30.01613	18.56262	789.33508	35.24019	-11.16001	643.94189	47.49350	97.95056	702.29926	107.89480	148.59021	963.83734	352.75806	194.01527	937.56006	270.30423	5.54006	1004.02136 
863	8.620	29.60350	17.00611	791.48657	34.01382	-15.07583	646.68677	45.36918	94.93431	703.10303	108.20623	150.09822	964.16754	352.95889	195.10941	937.44623	270.44006	6.74841	1004.91425 
864	8.630	29.22657	15.25538	793.78943	32.78972	-19.03144	649.49792	43.02739	91.71924	704.13678	108.40520	151.53474	964.55811	353.24695	196.14474	937.34656	270.64532	8.05946	1005.88550 
865	8.640	28.86941	13.59262	796.19403	31.49949	-22.92904	652.39612	40.64959	88.67662	705.36658	108.49882	152.97069	965.08521	353.55804	197.06665	937.22235	270.53622	9.62843	1006.63922 
866	8.650	28.47907	11.87490	798.62726	30.16918	-26.79480	655.47272	38.37952	85.73672	706.75854	108.34850	154.61775	965.61578	353.81232	197.93855	937.05841	270.49548	11.12641	1007.18555 
867	8.660	28.11077	10.02552	801.14618	28.93820	-30.60303	658.58533	36.05540	82.90818	708.32666	108.27368	156.14594	966.15106	354.01990	198.86072	936.85962	270.70709	12.46765	1007.74829 
868	8.670	27.80572	8.17896	803.78027	27.70700	-34.23948	661.62976	33.85924	80.27335	710.01331	108.31882	157.39200	966.74884	354.16559	199.82530	936.66107	270.80209	13.64816	1008.37402 
869	8.680	27.56403	6.50504	806.44476	26.37901	-37.58329	664.69751	32.09301	77.62670	711.79736	108.27078	158.64880	967.31451	354.22327	200.71086	936.48083	270.84409	14.80460	1008.83051 
870	8.690	27.32915	5.21977	809.00604	24.92947	-40.65604	667.85425	30.55859	75.14621	713.61414	108.15850	159.88919	967.81665	354.24869	201.45929	936.31097	271.00308	16.07642	1009.13556 
871	8.700	27.03747	4.14902	811.40381	23.40988	-43.25659	670.85223	29.41377	72.94769	715.22925	108.12844	160.95148	968.34778	354.24805	202.17676	936.18304	271.11157	17.18836	1009.60034 
872	8.710	26.68287	3.21452	813.63763	21.95184	-45.43928	673.59125	28.66249	70.89079	716.70813	108.16599	161.85970	968.86804	354.18259	202.94684	936.10101	271.18411	18.11720	1010.17877 
873	8.720	26.25806	2.51878	815.67859	20.48349	-47.36565	676.09552	27.75369	69.28925	718.20966	108.09387	162.64462	969.29456	354.08298	203.76320	936.04645	271.39474	19.09320	1010.66455 
874	8.730	25.79545	2.14273	817.50159	19.01694	-48.85391	678.28735	26.71537	68.20541	719.49463	107.95717	163.39124	969.67847	353.99268	204.52818	935.98059	271.69659	20.22475	1010.95953 
875	8.740	25.32104	2.05622	819.04065	17.63912	-50.01164	680.22852	25.81761	67.34296	720.52057	107.89046	164.17915	970.05646	353.91415	205.17017	935.83887	271.98007	21.52353	1011.07684 
876	8.750	24.82145	2.01288	820.34625	16.29188	-50.83363	681.83813	25.02789	66.68699	721.41437	107.88273	165.03752	970.42255	353.82904	205.77884	935.60248	271.96863	21.99332	1011.18652 
877	8.760	24.28573	2.05948	821.48083	14.99731	-51.38218	683.20538	24.32372	66.35003	722.19067	107.97410	165.80569	970.67010	353.74454	206.39160	935.30817	272.13440	22.85570	1011.34186 
878	8.770	23.69195	2.34012	822.35724	13.89590	-51.75400	684.45270	23.71770	66.16887	722.83276	108.12942	166.45026	970.78973	353.69376	206.95284	935.02100	272.39542	23.68468	1011.38226 
879	8.780	23.13071	2.77753	823.00116	12.96587	-51.82106	685.42230	23.20521	66.04047	723.22607	108.56059	166.98811	970.81683	353.74741	207.45930	934.78320	272.60345	24.18421	1011.28125 
880	8.790	22.71818	3.33061	823.39349	12.15168	-51.68742	686.10492	22.78955	66.16065	723.30792	109.40474	167.37675	970.64886	353.92441	207.92386	934.58527	272.67584	24.55675	1011.08704 
881	8.800	22.44807	4.11166	823.49097	11.51233	-51.38556	686.45038	22.51681	66.60325	723.18042	109.66959	168.09088	970.51404	354.18134	208.35825	934.39136	272.62988	24.98160	1010.87274 
882	8.810	22.26841	5.09766	823.35907	10.99836	-50.69728	686.36719	22.46599	67.35149	722.88660	108.89364	169.21198	970.64294	354.53619	208.80176	934.23352	272.64871	25.44368	1010.69159 
883	8.820	22.14323	6.17553	822.95819	10.60105	-49.60719	685.94189	22.69638	68.39230	722.41284	109.26373	170.37511	970.18188	354.96048	209.24330	934.12006	272.74280	25.87962	1010.39148 
884	8.830	22.07204	7.43713	822.24963	10.32799	-48.22105	685.27246	23.18151	69.76122	721.81201	109.89077	171.21451	969.70587	355.43967	209.62970	933.99188	272.72141	26.35353	1009.87915 
885	8.840	22.01505	9.01399	821.33081	10.07818	-46.60591	684.33972	23.84993	71.37528	721.06244	110.82593	171.78482	969.17328	355.99966	209.93071	933.83759	272.62259	26.88258	1009.26782 
886	8.850	21.95536	10.82450	820.29388	9.99174	-44.75281	683.17847	24.64510	73.18231	720.11609	111.32765	172.54526	968.55743	356.53818	210.18018	933.66827	272.61426	27.28518	1008.71832 
887	8.860	21.90995	12.69197	819.13007	10.17494	-42.40293	681.74115	25.46132	75.27930	718.96198	111.29238	173.25183	968.05487	356.95694	210.42789	933.51917	272.74219	27.55547	1008.23560 
888	8.870	21.93583	14.62335	817.76422	10.41806	-39.61543	680.03699	26.29262	77.60638	717.70325	111.38223	173.77379	967.68335	357.29456	210.65607	933.43073	272.85632	27.76398	1007.65509 
889	8.880	22.10090	16.73439	816.22229	10.66801	-36.57337	678.24237	27.25281	80.23299	716.51361	111.71845	174.50406	967.41870	357.62769	210.88792	933.41016	272.82904	27.85915	1006.93420 
890	8.890	22.27716	19.05952	814.56244	11.04257	-33.22529	676.24585	28.37068	83.14960	715.37079	112.17661	175.35959	967.29144	357.97913	211.13058	933.46759	272.78513	27.94641	1006.19025 
891	8.900	22.38402	21.45360	812.76666	11.53647	-29.69377	674.00726	29.55905	86.16101	714.14337	112.49311	176.05345	967.06299	358.32724	211.35005	933.62726	272.79706	28.08082	1005.57159 
892	8.910	22.47461	23.82139	810.83954	12.04816	-26.04418	671.52808	30.73165	89.31367	712.75800	112.52873	176.53777	966.65558	358.67166	211.59964	933.86603	272.68161	28.14084	1005.05914 
893	8.920	22.58905	26.28200	808.79578	12.54505	-22.02383	668.85181	31.89024	92.75571	711.29999	112.44891	176.84869	966.27576	359.04150	211.89774	934.12079	272.33499	28.04773	1004.46838 
894	8.930	22.78457	28.92563	806.71503	13.09660	-17.64702	666.22882	33.04013	96.45493	709.96771	112.44571	177.15189	966.00769	359.41913	212.16425	934.38177	271.98123	27.86508	1003.79541 
895	8.940	22.95140	31.65994	804.65930	13.82737	-13.28555	663.64795	34.20191	100.23300	708.79639	112.65528	177.56187	965.80786	359.74939	212.36377	934.67401	271.88147	27.62985	1003.22302 
896	8.950	23.08105	34.32141	802.64520	14.59092	-8.85421	660.99939	35.36026	104.04835	707.74127	112.95339	177.92117	965.62024	360.02332	212.52362	934.99652	271.85861	27.36723	1002.71979 
897	8.960	23.31184	36.95816	800.68073	15.28999	-4.19989	658.39703	36.36314	107.99063	706.80432	113.23566	178.14146	965.45898	360.29584	212.64983	935.37628	271.67444	27.22467	1002.08954 
898	8.970	23.61494	39.58171	798.74640	15.97985	0.51547	655.90405	37.19164	111.95402	705.97894	113.51415	178.28224	965.36896	360.60794	212.68843	935.83081	271.48828	27.17729	1001.34058 
899	8.980	23.95731	42.09951	796.91656	16.65399	5.38121	653.43658	37.94099	116.06979	705.30225	113.79469	178.37628	965.38953	360.94293	212.60648	936.29816	271.38004	27.02453	1000.64594 
